HIERARCHY
ROOT Hips
{
  OFFSET 74.0196 97.4445 -31.1285
  CHANNELS 6 Xposition Yposition Zposition Zrotation Xrotation Yrotation
  JOINT RightUpLeg
  {
    OFFSET -8.9458 -8.66707 0.101652
    CHANNELS 3 Zrotation Xrotation Yrotation
    JOINT RightLeg
    {
      OFFSET -2.94875e-013 -44.4227 1.3727
      CHANNELS 3 Zrotation Xrotation Yrotation
      JOINT RightFoot
      {
        OFFSET 0.253549 -42.0924 -1.46059
        CHANNELS 3 Zrotation Xrotation Yrotation
        JOINT RightToes
        {
          OFFSET 0.04 -4.41509 8.4991
          CHANNELS 3 Zrotation Xrotation Yrotation
          End Site
          {
            OFFSET -0.08 -0.137448 9.77979
          }
        }
      }
    }
  }
  JOINT Spine
  {
    OFFSET -5.68434e-014 11.8905 -6.39488e-014
    CHANNELS 3 Zrotation Xrotation Yrotation
    JOINT Spine1
    {
      OFFSET 5.68434e-014 25.6574 0.127663
      CHANNELS 3 Zrotation Xrotation Yrotation
      JOINT HEad
      {
        OFFSET 4.26326e-014 8.73416 0.011341
        CHANNELS 3 Zrotation Xrotation Yrotation
        End Site
        {
          OFFSET -0.29 12.7742 2.51395
        }
      }
      JOINT LeftShoulder1
      {
        OFFSET 8.99 -0.362252 -0.22
        CHANNELS 3 Zrotation Xrotation Yrotation
        JOINT LeftArm
        {
          OFFSET 10.2827 -0.00338 0.322123
          CHANNELS 3 Zrotation Xrotation Yrotation
          JOINT LeftForeArm
          {
            OFFSET 32.7669 0.099144 -1.42434
            CHANNELS 3 Zrotation Xrotation Yrotation
            JOINT LeftHand
            {
              OFFSET 27.5643 0.085362 1.02216
              CHANNELS 3 Zrotation Xrotation Yrotation
              End Site
              {
                OFFSET 16.7443 -0.6 1.50291
              }
            }
          }
        }
      }
      JOINT RightShoulder
      {
        OFFSET -8.99 -0.362252 -0.22
        CHANNELS 3 Zrotation Xrotation Yrotation
        JOINT RightArm
        {
          OFFSET -10.2827 -0.00338 0.322123
          CHANNELS 3 Zrotation Xrotation Yrotation
          JOINT RightForeArm
          {
            OFFSET -32.8971 0.099144 -1.42434
            CHANNELS 3 Zrotation Xrotation Yrotation
            JOINT RightHand
            {
              OFFSET -27.4921 0.085362 1.02216
              CHANNELS 3 Zrotation Xrotation Yrotation
              End Site
              {
                OFFSET -16.6312 -0.6 1.50291
              }
            }
          }
        }
      }
    }
  }
  JOINT LeftUpLeg
  {
    OFFSET 8.9458 -8.66707 0.101652
    CHANNELS 3 Zrotation Xrotation Yrotation
    JOINT LeftLeg
    {
      OFFSET 7.10543e-014 -44.4227 1.3727
      CHANNELS 3 Zrotation Xrotation Yrotation
      JOINT LeftFoot
      {
        OFFSET -0.253549 -42.0924 -1.46059
        CHANNELS 3 Zrotation Xrotation Yrotation
        JOINT LeftToes
        {
          OFFSET -0.04 -4.41509 8.4991
          CHANNELS 3 Zrotation Xrotation Yrotation
          End Site
          {
            OFFSET 0.08 -0.047448 9.77979
          }
        }
      }
    }
  }
}
MOTION
Frames:	21
Frame Time:	0.0166667
-11.566 89.2237 64.8233 2.7521 -0.52735 126.529 -21.4099 -3.06339 0.671949 8.28606 39.2832 -6.93409 6.61519 -2.68307 -0.427617 -34.2727 -41.9654 -20.1854 -2.53161 7.50155 4.36387 -2.51621 14.4244 9.12243 -7.81306 -4.8714 10.7057 -5.03302e-021 -3.88251e-019 1.21329e-020 -50.1648 -43.9702 -19.0349 9.64967 31.7044 -121.093 25.8201 6.3796 -11.5455 11.3129 2.84407 16.9357 69.7231 -26.6257 42.6211 -13.5128 43.5062 140.683 -20.8817 15.7668 -37.2319 15.2672 -42.8928 3.10788 24.0317 64.8577 -36.116 -30.861 15.4473 6.22388 15.2838 -27.2042 -14.8254 
-11.9485 88.3765 63.1707 2.61624 0.120675 123.396 -23.2107 -3.24379 0.755896 6.53215 38.9798 -4.04677 6.61024 -4.69917 -0.324131 -32.6326 -41.0526 -18.5266 -2.3306 7.49736 4.92253 -2.41866 14.4584 10.228 -8.9757 -4.65768 11.4429 -5.03302e-021 -3.88251e-019 1.21329e-020 -45.1484 -42.3162 -13.5316 5.16046 32.1436 -121.718 20.702 6.68681 -13.946 10.8855 2.69435 16.3908 68.7041 -26.2526 42.3011 -12.0115 44.994 138.788 -21.757 15.694 -35.5275 17.0047 -44.4583 3.59078 24.4511 68.8572 -37.7807 -31.3475 16.2151 6.53743 14.3925 -26.3769 -16.0846 
-12.4118 87.6656 61.3342 2.35678 0.573466 119.801 -24.9934 -4.48858 0.451294 4.14727 39.1306 -0.122237 7.71108 -5.85615 -0.282194 -31.1003 -40.2709 -16.6891 -2.20469 7.42511 5.3921 -2.16503 14.3399 11.1149 -10.2266 -4.19893 12.7453 -5.03302e-021 -3.88251e-019 1.21329e-020 -39.4928 -43.6932 -7.3832 -2.06822 35.6747 -119.76 13.0774 7.56012 -17.27 10.4317 2.56787 16.0119 67.3438 -25.6037 41.924 -10.1274 46.4416 136.42 -22.7969 15.5805 -33.5269 18.8634 -45.272 4.17577 23.9461 71.7218 -37.4399 -29.9575 15.4873 6.04067 13.6808 -24.8334 -15.5323 
-12.8944 87.0462 59.4013 2.02102 0.810251 116.093 -26.3156 -6.66264 -0.24607 0.688905 39.7709 4.74845 9.99267 -5.96542 -0.309657 -30.1603 -40.0416 -14.9529 -2.14502 7.31654 5.66807 -1.694 14.1349 11.5818 -11.4285 -3.60815 14.5043 -5.03302e-021 -3.88251e-019 1.21329e-020 -32.1533 -48.0954 0.0403053 -12.3346 41.1275 -113.532 3.72421 9.24412 -20.5562 10.0221 2.47039 15.7731 65.7483 -24.6543 41.5638 -8.00248 47.6203 133.771 -23.8505 15.4267 -31.4822 20.5529 -45.369 4.56187 22.6503 73.1336 -35.112 -27.4468 13.94 5.14049 13.2131 -23.2526 -14.0107 
-13.32 86.4641 57.4711 1.67061 0.825305 112.696 -26.8153 -9.4043 -1.13637 -4.00011 40.7732 10.0336 13.0993 -4.96143 -0.465391 -30.0409 -40.5154 -13.6708 -2.13436 7.20912 5.64282 -0.979061 13.9203 11.4277 -12.4161 -3.0676 16.5639 -5.03302e-021 -3.88251e-019 1.21329e-020 -22.0061 -54.0999 9.39778 -24.5027 45.4605 -102.649 -5.13118 11.3084 -23.2306 9.79835 2.42065 15.663 64.0316 -23.4798 41.2846 -5.89975 48.3704 131.156 -24.7338 15.2556 -29.6989 21.7683 -44.8554 4.49197 21.4372 72.7675 -31.7652 -24.7556 12.4306 4.29171 13.1204 -22.3691 -12.4967 
-13.6156 85.8604 55.6253 1.37247 0.624901 110.067 -26.3491 -12.1995 -1.79274 -9.57899 41.9729 14.797 16.342 -2.80343 -0.839154 -30.8868 -41.6511 -13.3403 -2.12342 7.1244 5.22119 -0.0378929 13.7328 10.4845 -13.0013 -2.74769 18.7434 -5.03302e-021 -3.88251e-019 1.21329e-020 -8.90963 -59.637 20.6318 -34.0749 46.4386 -90.5834 -10.3884 12.849 -25.921 9.99604 2.45981 15.7248 62.1869 -22.2207 40.9967 -4.14346 48.554 128.994 -25.1978 15.1079 -28.5466 22.219 -43.873 3.84979 21.6861 70.3845 -29.0649 -22.5668 11.7673 3.76729 13.8169 -23.1002 -11.6417 
-13.7217 85.1682 53.8986 1.18291 0.229492 108.635 -25.0517 -14.5248 -1.74235 -15.2514 43.4039 17.966 18.9303 0.49105 -1.47717 -32.7633 -43.205 -14.479 -1.99133 7.04706 4.35314 1.07146 13.5298 8.68193 -13.0115 -2.72353 20.82 -5.03302e-021 -3.88251e-019 1.21329e-020 5.24086 -63.5777 31.9181 -34.3967 45.2981 -83.038 -8.64886 12.6752 -29.2527 10.881 2.64383 16.0421 60.0416 -20.9945 40.3672 -3.04912 47.9599 127.787 -24.9068 15.0251 -28.4562 21.7237 -42.5641 2.72359 23.9399 65.9193 -28.0106 -21.2343 12.415 3.65109 15.83 -26.3061 -11.5648 
-13.594 84.321 52.2819 1.12639 -0.301588 108.727 -23.2875 -15.995 -0.742164 -20.1438 45.3703 18.8578 20.2952 4.61634 -2.28249 -35.3156 -44.5805 -17.1851 -1.59213 6.92186 3.07555 2.24127 13.1986 6.12127 -12.3581 -2.96057 22.4913 -5.03302e-021 -3.88251e-019 1.21329e-020 17.3856 -66.3946 40.4302 -19.4693 45.3756 -84.684 2.63061 9.32811 -29.3539 12.5741 3.01117 16.6493 57.4188 -19.8046 38.9342 -2.84364 46.278 128.03 -23.4907 15.0015 -29.8374 20.3549 -41.0845 1.33685 27.269 59.6346 -28.3075 -20.8646 14.2923 3.91601 19.492 -32.2957 -11.7995 
-13.2053 83.2856 50.7703 1.17286 -0.839333 110.511 -21.5054 -16.4447 1.07754 -23.6586 48.2105 17.5203 20.2921 8.89305 -3.01182 -37.5548 -44.9843 -20.8154 -0.924279 6.68028 1.53025 3.28506 12.6207 3.10197 -11.0929 -3.40266 23.3762 -5.03302e-021 -3.88251e-019 1.21329e-020 11.7614 -64.8458 30.9152 7.27062 39.8661 -92.7207 16.7825 7.29842 -14.1525 14.877 3.53617 17.4356 54.4348 -18.5191 36.4485 -3.54855 43.2193 129.965 -20.7068 14.9191 -32.8843 18.4259 -39.7043 -0.142129 30.266 52.3661 -29.337 -21.3296 16.7409 4.45076 24.6891 -40.1595 -11.4128 
-12.5549 82.0989 49.4144 1.20967 -1.19983 113.961 -20.0601 -15.9206 3.29821 -25.521 51.9775 14.5478 19.1915 12.6031 -3.446 -38.4335 -43.9914 -24.3982 -0.276223 6.29349 -0.0631248 3.93745 11.7525 0.0663446 -9.39623 -4.09201 23.0917 -5.03302e-021 -3.88251e-019 1.21329e-020 -2.9017 -57.7806 12.1903 21.4903 31.2115 -87.4802 20.4708 10.4479 7.53424 17.2931 4.10703 18.1659 51.6252 -17.0117 33.216 -4.91097 38.757 133.33 -16.6666 14.5525 -37.3712 16.2106 -38.8899 -1.7022 32.1509 45.4548 -31.0522 -22.3371 18.7888 5.06176 30.6969 -47.8125 -9.75585 
-11.6722 80.8624 48.3077 1.04156 -1.2475 118.866 -19.084 -14.6173 5.42287 -25.6921 56.3325 10.6555 17.5322 15.4149 -3.55906 -37.7271 -41.8359 -27.4173 -0.0968519 5.81622 -1.46764 3.93441 10.6713 -2.50721 -7.50962 -5.19514 21.3646 -5.03302e-021 -3.88251e-019 1.21329e-020 -13.2312 -49.7405 -2.24775 25.9431 25.8272 -76.0087 19.5891 12.4545 19.9156 19.2592 4.56642 18.6149 49.6697 -15.4249 30.0919 -6.52906 33.3661 137.43 -11.9624 13.7348 -42.6555 13.7453 -39.1858 -3.36773 32.8472 40.1982 -33.7293 -23.6009 19.7281 5.55299 36.1203 -53.5301 -7.55258 
-10.606 79.6837 47.5163 0.485942 -1.02336 124.869 -18.4557 -12.7945 7.06095 -24.3306 60.7438 6.44478 15.8814 17.3775 -3.48154 -36.0519 -39.1636 -29.912 -0.629537 5.37423 -2.49456 3.1312 9.56292 -4.20804 -5.67964 -6.89738 18.0992 -5.03302e-021 -3.88251e-019 1.21329e-020 -21.5342 -43.6236 -13.9296 26.7619 22.8974 -66.132 21.0496 12.93 21.4519 20.3602 4.78562 18.6658 48.9365 -14.248 28.0932 -8.09871 28.0016 141.471 -7.4993 12.5631 -47.979 10.9524 -40.9494 -5.02229 32.5557 37.299 -37.3745 -24.9739 19.6054 5.86682 39.4418 -57.1527 -6.6091 
-9.4052 78.6033 47.0405 -0.500825 -0.714763 131.548 -17.9269 -10.7215 8.01552 -21.7542 64.8492 2.40073 14.6143 18.514 -3.33959 -34.1431 -36.5986 -31.9731 -1.77645 5.09787 -3.01818 1.5549 8.66268 -4.76262 -4.15167 -9.24979 13.3722 -5.03302e-021 -3.88251e-019 1.21329e-020 -30.7726 -40.6724 -24.4213 24.2881 21.5241 -61.3207 26.2605 12.1262 14.3137 20.3752 4.70641 18.3117 49.323 -14.1207 27.9705 -9.5441 23.7385 144.693 -4.15577 11.4132 -52.7032 7.78548 -44.132 -6.42653 31.5442 36.6634 -41.5629 -26.5411 19.1663 6.15484 39.9995 -59.5131 -8.28283 
-8.10869 77.5852 46.8193 -1.78884 -0.508892 138.482 -17.2928 -8.6128 8.24819 -18.2269 68.5761 -1.25069 13.809 18.5781 -3.16135 -32.3232 -34.4544 -33.4179 -3.23405 5.06336 -2.95982 -0.64037 8.17567 -4.06341 -3.18723 -12.0635 7.39152 -5.03302e-021 -3.88251e-019 1.21329e-020 -42.3636 -40.0641 -33.8429 17.372 21.3378 -62.1764 31.8735 8.98568 1.00155 19.2283 4.33984 17.6146 50.5308 -15.9509 29.9678 -10.9151 21.7097 146.194 -2.75674 10.8679 -56.0993 4.23418 -48.2423 -7.41764 30.1751 37.5979 -45.7142 -28.5178 19.1827 6.64443 37.836 -61.2017 -12.9514 
-6.7515 76.5794 46.7659 -3.17031 -0.484119 145.305 -16.4816 -6.59423 7.77577 -13.7249 71.9638 -4.8096 13.2701 17.2435 -2.89085 -30.4738 -32.6986 -33.8773 -4.71542 5.28149 -2.29501 -3.24486 8.20812 -2.16672 -3.04031 -14.8794 0.468582 -5.03302e-021 -3.88251e-019 1.21329e-020 -54.9778 -40.0963 -40.859 7.28096 24.4722 -66.553 32.2961 4.94276 -13.2158 16.9682 3.74904 16.6666 52.6009 -21.2928 33.872 -12.1111 23.5417 144.93 -4.26385 11.6265 -57.1821 0.271861 -52.5571 -8.10113 28.8943 39.2696 -49.5035 -30.8579 19.7059 7.36534 33.1941 -61.8138 -20.0497 
-5.37372 75.5791 46.8164 -4.49503 -0.614568 151.747 -15.5553 -4.74261 6.61022 -7.9374 74.9735 -9.10574 12.7098 14.4565 -2.47761 -28.2959 -31.0675 -33.127 -6.0871 5.72494 -1.08446 -6.03275 8.73501 0.727867 -3.82946 -17.0158 -6.97411 -5.03302e-021 -3.88251e-019 1.21329e-020 -65.1657 -39.6187 -43.782 -0.545405 31.8154 -72.3568 28.7004 3.19543 -22.2645 13.7862 3.0271 15.5518 56.3071 -31.0866 39.6808 -12.6312 30.4265 139.908 -9.06878 13.8007 -55.3242 -4.14117 -56.4387 -8.8474 28.0217 41.0575 -52.9244 -33.0563 20.153 8.05611 27.4122 -60.4339 -27.3748 
-4.01726 74.6233 46.9411 -5.70574 -0.851156 157.651 -14.6529 -3.11913 4.77082 -0.459495 77.4522 -15.1279 11.9751 10.5507 -1.95407 -25.6129 -29.2244 -31.3974 -7.30138 6.34029 0.514019 -8.76859 9.61591 4.31545 -5.32968 -17.7396 -14.3904 -5.03302e-021 -3.88251e-019 1.21329e-020 -70.2421 -38.0499 -42.3345 -2.83675 39.5289 -79.943 25.9598 3.06531 -25.681 9.97262 2.26957 14.333 62.9672 -43.6364 48.6077 -11.323 41.3447 129.66 -16.0646 16.4039 -51.1185 -8.93666 -59.5245 -10.0337 27.5283 42.5838 -55.9805 -34.6035 20.1196 8.451 22.6235 -57.0278 -32.2324 
-2.70882 73.7573 47.1203 -6.782 -1.16947 162.956 -13.9192 -1.73963 2.32641 8.86627 79.2059 -23.4327 11.1066 6.04457 -1.4107 -22.5172 -26.9467 -29.3321 -8.29711 7.04462 2.29059 -11.2289 10.6579 8.24234 -6.8905 -16.5856 -21.1973 -5.03302e-021 -3.88251e-019 1.21329e-020 -69.6123 -33.6849 -37.7552 -0.0179601 42.2887 -89.4813 25.2808 3.26691 -25.6362 5.79659 1.55191 13.0979 74.0182 -55.2573 62.9447 -5.32112 53.3996 110.894 -23.2292 18.3955 -46.3373 -13.8475 -61.7226 -11.7653 27.1202 43.6249 -58.5381 -35.5091 19.7676 8.57921 19.5685 -52.7297 -34.1595 
-1.45147 73.003 47.3197 -7.68971 -1.55873 167.665 -13.4414 -0.526736 -0.573936 19.3844 80.082 -33.4571 10.2305 1.40101 -0.923338 -19.2861 -24.2653 -27.5783 -9.00698 7.74753 4.04832 -13.2498 11.6977 12.1637 -7.68784 -13.6621 -26.9955 -5.03302e-021 -3.88251e-019 1.21329e-020 -65.0214 -24.1113 -32.4067 4.56451 36.5924 -97.8925 25.4883 3.72902 -23.4156 1.47744 0.922 12.0122 83.1116 -61.3844 78.0821 9.96541 59.0657 78.2289 -28.1297 19.4073 -43.0422 -18.497 -63.1321 -13.8594 26.5487 44.1057 -60.4827 -36.1965 19.5012 8.67353 17.7404 -48.8596 -34.5037 
-0.238081 72.3476 47.4996 -8.38147 -1.99423 171.787 -13.2152 0.662931 -3.68632 29.4248 80.0678 -43.3489 9.43447 -3.03164 -0.524566 -16.2719 -21.4907 -26.4534 -9.42783 8.3918 5.64877 -14.7599 12.6533 15.7792 -7.15428 -9.68449 -31.6952 -5.03302e-021 -3.88251e-019 1.21329e-020 -61.6342 -16.4428 -28.0095 7.65866 31.0631 -103.624 25.5021 4.13295 -21.6608 -2.71801 0.398647 11.2813 38.3762 -38.6789 53.0549 1.62954 10.2673 47.245 -16.796 15.3614 -42.486 -22.571 -63.9648 -16.0321 25.811 44.1186 -61.8668 -37.0969 19.5541 8.92441 16.5458 -46.1131 -34.6224 
0.925017 71.7625 47.6265 -8.80311 -2.42053 175.303 -13.1359 1.97316 -6.69757 37.3017 79.3092 -51.0835 8.68021 -6.90042 -0.2248 -13.9226 -19.1779 -25.9588 -9.61546 8.95845 6.999 -15.7777 13.516 18.847 -5.23014 -5.66586 -35.3388 -5.03302e-021 -3.88251e-019 1.21329e-020 -59.3323 -10.9706 -24.1551 8.75766 26.752 -106.793 24.7747 4.37117 -21.3811 -6.42585 -0.0231503 11.0327 14.8131 -15.0448 45.7528 -17.2726 -24.9342 12.6721 0.179161 9.60862 -40.3864 -25.875 -64.4586 -18.0335 25.1009 43.8847 -62.8881 -38.3936 19.8761 9.37283 15.6023 -44.4517 -35.1953 
